<svg width="18" height="23" viewBox="0 0 18 23" fill="none" xmlns="http://www.w3.org/2000/svg">
<path d="M12.8452 0.580078C12.8373 0.754152 12.8212 0.962676 12.7808 1.19238C12.6624 1.86366 12.3682 2.69471 11.6694 3.39355C10.9464 4.11652 10.2635 4.40057 9.78174 4.51074C9.65531 4.53964 9.54135 4.55566 9.44287 4.56543C9.44917 4.39531 9.46439 4.18521 9.50635 3.95117C9.61836 3.32671 9.89595 2.55104 10.5532 1.89355C11.2388 1.208 11.9518 0.859042 12.4878 0.681641C12.6185 0.638384 12.7387 0.605321 12.8452 0.580078Z" fill="white" stroke="white"/>
<path d="M9.12452 6.33953C8.01885 6.33196 7.33965 5.37726 5.4566 5.37726C3.76225 5.37726 2.06373 6.47044 1.34151 7.5282C0.622641 8.58103 0 9.73575 0 12.0791C0 14.4225 1.12832 18.4527 3.90285 21.181C4.378 21.6483 5.00698 21.9995 5.72454 22.0212C7.0151 22.0603 7.80756 21.0942 9.43774 21.0942C11.0679 21.0942 11.5585 22.0212 13.0302 22.0212C13.6994 22.0212 14.4626 21.7164 15.2038 20.9282C16.1547 19.9169 17.3347 17.9908 17.9358 16.1433C17.9358 16.1433 14.9258 14.9808 14.9622 11.6301C14.9924 8.85273 17.3509 7.48668 17.3509 7.48668C17.3509 7.48668 15.9735 5.29045 13.0453 5.29045C11.0226 5.30558 10.1169 6.34632 9.12452 6.33953Z" fill="white"/>
</svg>
